<svg width="32" height="32" viewBox="0 0 32 32" fill="none" xmlns="http://www.w3.org/2000/svg">
<rect width="32" height="32" rx="4" fill="white"/>
<path d="M22.3174 17.8321L24.0693 11.0938H26L23.7207 19.6739C22.9386 21.4958 21.5376 21.1332 20.9102 19.6739L18.627 11.0938H20.5566L22.3174 17.8321ZM17.5801 12.8428H14.4229V15.1192H16.3535V16.8712H14.4229V19.1475H17.5811V20.8995H13.8965C13.2352 20.9166 12.6855 20.3937 12.6689 19.7325V12.3194C12.6531 11.6588 13.1763 11.1104 13.8369 11.0938H17.5811L17.5801 12.8428ZM8.80762 11.0919C10.9073 11.092 11.6137 12.7785 11.6143 13.8936V18.0958C11.6143 19.2103 10.9265 20.8991 8.74902 20.8956H6V11.0919H8.80762ZM7.87207 19.1163H8.90527C9.13514 19.1163 9.36584 19.0302 9.5957 18.8585C9.82556 18.6867 9.94039 18.4292 9.94043 18.085V13.9581C9.93984 13.6144 9.82501 13.3555 9.5957 13.1837C9.36586 13.0119 9.13511 12.9269 8.90527 12.9268H7.87207V19.1163Z" fill="black"/>
</svg>
