<svg width="20" height="16" viewBox="0 0 20 16" fill="none" xmlns="http://www.w3.org/2000/svg">
<path d="M16.9308 1.26371C15.6342 0.668517 14.2658 0.244085 12.8599 0.0010475C12.8471 -0.00133502 12.834 0.00037048 12.8222 0.00592117C12.8105 0.0114719 12.8008 0.0205851 12.7945 0.0319642C12.6187 0.344714 12.4239 0.752631 12.2876 1.07321C10.7503 0.843047 9.22092 0.843047 7.71525 1.07321C7.57892 0.745464 7.37709 0.344714 7.2005 0.0319642C7.19396 0.0208444 7.18422 0.0119541 7.17255 0.00645384C7.16088 0.000953541 7.14783 -0.000901341 7.13509 0.00113094C5.72907 0.243603 4.36058 0.667999 3.06409 1.26363C3.05299 1.26837 3.04365 1.27644 3.03734 1.28671C0.444503 5.16038 -0.26583 8.9388 0.08267 12.6704C0.0836554 12.6795 0.0864643 12.6884 0.0909303 12.6964C0.0953964 12.7044 0.101429 12.7115 0.10867 12.7171C1.81934 13.9735 3.47642 14.7361 5.10275 15.2416C5.1154 15.2454 5.1289 15.2452 5.14144 15.2411C5.15398 15.237 5.16496 15.2292 5.17292 15.2186C5.55759 14.6933 5.9005 14.1393 6.19459 13.5568C6.19863 13.5488 6.20094 13.5401 6.20136 13.5311C6.20178 13.5222 6.2003 13.5133 6.19703 13.505C6.19375 13.4967 6.18875 13.4891 6.18236 13.4829C6.17596 13.4766 6.16831 13.4718 6.15992 13.4687C5.61592 13.2624 5.098 13.0108 4.59975 12.7251C4.59067 12.7198 4.58303 12.7123 4.57753 12.7033C4.57203 12.6943 4.56882 12.6841 4.56819 12.6736C4.56757 12.6631 4.56954 12.6526 4.57394 12.643C4.57834 12.6334 4.58503 12.6251 4.59342 12.6187C4.69825 12.5401 4.80317 12.4585 4.90325 12.3759C4.91215 12.3685 4.92291 12.3638 4.93434 12.3623C4.94577 12.3607 4.9574 12.3624 4.96792 12.3671C8.24109 13.8615 11.7846 13.8615 15.0191 12.3671C15.0296 12.3621 15.0414 12.3602 15.0529 12.3616C15.0645 12.363 15.0755 12.3677 15.0845 12.375C15.1847 12.4575 15.2895 12.5401 15.3952 12.6187C15.4036 12.625 15.4103 12.6333 15.4148 12.6428C15.4192 12.6524 15.4213 12.6628 15.4207 12.6733C15.4202 12.6838 15.4171 12.6941 15.4117 12.7031C15.4062 12.7121 15.3987 12.7196 15.3897 12.725C14.8912 13.0162 14.3691 13.2647 13.8288 13.4679C13.8204 13.4711 13.8128 13.476 13.8065 13.4824C13.8001 13.4887 13.7952 13.4964 13.792 13.5048C13.7888 13.5131 13.7874 13.5221 13.7879 13.5311C13.7884 13.5401 13.7908 13.5488 13.7949 13.5568C14.0953 14.1385 14.4382 14.6925 14.8158 15.2178C14.8235 15.2286 14.8344 15.2368 14.847 15.241C14.8596 15.2453 14.8732 15.2455 14.8859 15.2416C16.5201 14.736 18.1772 13.9734 19.8878 12.7171C19.8952 12.7118 19.9013 12.7049 19.9058 12.6969C19.9103 12.689 19.9131 12.6802 19.9139 12.6711C20.3309 8.35696 19.2154 4.60955 16.9568 1.28746C16.9513 1.27667 16.9421 1.2683 16.9308 1.26371ZM6.68334 10.3982C5.69792 10.3982 4.88592 9.49346 4.88592 8.38238C4.88592 7.27138 5.68217 6.36663 6.68342 6.36663C7.69242 6.36663 8.4965 7.2793 8.48075 8.38246C8.48059 9.49346 7.6845 10.3982 6.68334 10.3982ZM13.329 10.3982C12.3436 10.3982 11.5316 9.49346 11.5316 8.38238C11.5316 7.27138 12.3278 6.36663 13.329 6.36663C14.338 6.36663 15.1421 7.2793 15.1263 8.38246C15.1263 9.49346 14.3302 10.3982 13.329 10.3982Z" fill="black"/>
</svg>
