<svg width="32" height="32" viewBox="0 0 32 32" fill="none" xmlns="http://www.w3.org/2000/svg">
<rect x="0.5" y="0.5" width="31" height="31" rx="3.5" stroke="white" stroke-opacity="0.1"/>
<path d="M22.9308 9.64152C21.6342 9.04632 20.2658 8.62189 18.8599 8.37886C18.8471 8.37647 18.834 8.37818 18.8222 8.38373C18.8105 8.38928 18.8008 8.39839 18.7945 8.40977C18.6187 8.72252 18.4239 9.13044 18.2876 9.45102C16.7503 9.22086 15.2209 9.22086 13.7153 9.45102C13.5789 9.12327 13.3771 8.72252 13.2005 8.40977C13.194 8.39865 13.1842 8.38976 13.1726 8.38426C13.1609 8.37876 13.1478 8.37691 13.1351 8.37894C11.7291 8.62141 10.3606 9.04581 9.06409 9.64144C9.05299 9.64618 9.04365 9.65424 9.03734 9.66452C6.4445 13.5382 5.73417 17.3166 6.08267 21.0482C6.08366 21.0573 6.08646 21.0662 6.09093 21.0742C6.0954 21.0822 6.10143 21.0893 6.10867 21.0949C7.81934 22.3513 9.47642 23.1139 11.1028 23.6194C11.1154 23.6232 11.1289 23.623 11.1414 23.6189C11.154 23.6148 11.165 23.607 11.1729 23.5964C11.5576 23.0711 11.9005 22.5171 12.1946 21.9346C12.1986 21.9266 12.2009 21.9179 12.2014 21.909C12.2018 21.9 12.2003 21.8911 12.197 21.8828C12.1938 21.8745 12.1888 21.8669 12.1824 21.8607C12.176 21.8544 12.1683 21.8496 12.1599 21.8465C11.6159 21.6402 11.098 21.3886 10.5998 21.1029C10.5907 21.0976 10.583 21.0901 10.5775 21.0811C10.572 21.0721 10.5688 21.0619 10.5682 21.0514C10.5676 21.0409 10.5695 21.0304 10.5739 21.0208C10.5783 21.0112 10.585 21.0029 10.5934 20.9965C10.6983 20.9179 10.8032 20.8363 10.9033 20.7537C10.9121 20.7464 10.9229 20.7416 10.9343 20.7401C10.9458 20.7386 10.9574 20.7402 10.9679 20.7449C14.2411 22.2394 17.7846 22.2394 21.0191 20.7449C21.0296 20.7399 21.0414 20.738 21.0529 20.7394C21.0645 20.7408 21.0755 20.7455 21.0845 20.7529C21.1847 20.8354 21.2895 20.9179 21.3952 20.9965C21.4036 21.0028 21.4103 21.0111 21.4148 21.0206C21.4192 21.0302 21.4213 21.0406 21.4207 21.0512C21.4202 21.0617 21.4171 21.0719 21.4117 21.0809C21.4062 21.0899 21.3987 21.0974 21.3897 21.1029C20.8912 21.394 20.3691 21.6425 19.8288 21.8457C19.8204 21.8489 19.8128 21.8538 19.8065 21.8602C19.8001 21.8665 19.7952 21.8742 19.792 21.8826C19.7888 21.891 19.7874 21.8999 19.7879 21.9089C19.7884 21.9179 19.7908 21.9266 19.7949 21.9346C20.0953 22.5163 20.4382 23.0703 20.8158 23.5956C20.8235 23.6064 20.8344 23.6146 20.847 23.6189C20.8596 23.6231 20.8732 23.6233 20.8859 23.6194C22.5201 23.1139 24.1772 22.3512 25.8878 21.0949C25.8952 21.0896 25.9013 21.0827 25.9058 21.0747C25.9103 21.0668 25.9131 21.058 25.9139 21.0489C26.3309 16.7348 25.2154 12.9874 22.9568 9.66527C22.9513 9.65448 22.9421 9.64611 22.9308 9.64152ZM12.6833 18.776C11.6979 18.776 10.8859 17.8713 10.8859 16.7602C10.8859 15.6492 11.6822 14.7444 12.6834 14.7444C13.6924 14.7444 14.4965 15.6571 14.4808 16.7603C14.4806 17.8713 13.6845 18.776 12.6833 18.776ZM19.329 18.776C18.3436 18.776 17.5316 17.8713 17.5316 16.7602C17.5316 15.6492 18.3278 14.7444 19.329 14.7444C20.338 14.7444 21.1421 15.6571 21.1263 16.7603C21.1263 17.8713 20.3302 18.776 19.329 18.776Z" fill="white"/>
</svg>
