<svg width="23" height="23" viewBox="0 0 23 23" fill="none" xmlns="http://www.w3.org/2000/svg">
<rect x="0.75" y="0.75" width="21.5" height="21.5" rx="10.75" fill="#414651"/>
<rect x="0.75" y="0.75" width="21.5" height="21.5" rx="10.75" stroke="black" stroke-width="1.5"/>
<path d="M6.25 16.75V14.2708L13.95 6.58542C14.0667 6.47847 14.1955 6.39583 14.3365 6.3375C14.4774 6.27917 14.6257 6.25 14.7812 6.25C14.9368 6.25 15.0875 6.27917 15.2333 6.3375C15.3792 6.39583 15.5056 6.48333 15.6125 6.6L16.4146 7.41667C16.5312 7.52361 16.6163 7.65 16.6698 7.79583C16.7233 7.94167 16.75 8.0875 16.75 8.23333C16.75 8.38889 16.7233 8.53715 16.6698 8.67812C16.6163 8.8191 16.5312 8.94792 16.4146 9.06458L8.72917 16.75H6.25ZM14.7667 9.05L15.5833 8.23333L14.7667 7.41667L13.95 8.23333L14.7667 9.05Z" fill="#FDFDFD"/>
</svg>
