<svg width="32" height="32" viewBox="0 0 32 32" fill="none" xmlns="http://www.w3.org/2000/svg">
<rect x="0.5" y="0.5" width="31" height="31" rx="3.5" stroke="white" stroke-opacity="0.1"/>
<g clip-path="url(#clip0_95_2880)">
<mask id="mask0_95_2880" style="mask-type:luminance" maskUnits="userSpaceOnUse" x="6" y="6" width="20" height="20">
<path d="M25.6031 6H6V26H25.6031V6Z" fill="white"/>
</mask>
<g mask="url(#mask0_95_2880)">
<path d="M25.603 16.2296C25.603 15.5498 25.5479 14.8664 25.4303 14.1976H15.998V18.0484H21.3995C21.1753 19.2904 20.4551 20.389 19.4006 21.0872V23.5858H22.623C24.5154 21.8441 25.603 19.272 25.603 16.2296Z" fill="white"/>
<path d="M15.9987 26.0001C18.6958 26.0001 20.9703 25.1145 22.6274 23.586L19.4049 21.0873C18.5084 21.6973 17.3509 22.0427 16.0024 22.0427C13.3935 22.0427 11.1816 20.2826 10.3879 17.9163H7.0625V20.4921C8.76009 23.8689 12.2177 26.0001 15.9987 26.0001Z" fill="white"/>
<path d="M10.3835 17.9163C9.96461 16.6743 9.96461 15.3295 10.3835 14.0875V11.5117H7.0618C5.64346 14.3374 5.64346 17.6664 7.0618 20.4921L10.3835 17.9163Z" fill="white"/>
<path d="M15.9988 9.95732C17.4245 9.93527 18.8024 10.4717 19.8349 11.4565L22.6899 8.60145C20.8821 6.90385 18.4827 5.97055 15.9988 5.99994C12.2178 5.99994 8.7601 8.13112 7.0625 11.5116L10.3842 14.0874C11.1742 11.7174 13.3899 9.95732 15.9988 9.95732Z" fill="white"/>
</g>
</g>
<defs>
<clipPath id="clip0_95_2880">
<rect width="20" height="20" fill="white" transform="translate(6 6)"/>
</clipPath>
</defs>
</svg>
