<svg width="32" height="32" viewBox="0 0 32 32" fill="none" xmlns="http://www.w3.org/2000/svg">
<rect x="0.5" y="0.5" width="31" height="31" rx="3.5" stroke="white" stroke-opacity="0.1"/>
<path d="M23.0392 23.0433H20.0775V18.4025C20.0775 17.2958 20.055 15.8717 18.5342 15.8717C16.99 15.8717 16.7542 17.0758 16.7542 18.3208V23.0433H13.7925V13.5H16.6375V14.8008H16.6758C17.0733 14.0508 18.04 13.2592 19.4842 13.2592C22.485 13.2592 23.04 15.2342 23.04 17.805L23.0392 23.0433ZM10.4475 12.1942C9.49417 12.1942 8.72833 11.4225 8.72833 10.4733C8.72833 9.525 9.495 8.75417 10.4475 8.75417C11.3975 8.75417 12.1675 9.525 12.1675 10.4733C12.1675 11.4225 11.3967 12.1942 10.4475 12.1942ZM11.9325 23.0433H8.9625V13.5H11.9325V23.0433ZM24.5208 6H7.47583C6.66 6 6 6.645 6 7.44083V24.5592C6 25.3558 6.66 26 7.47583 26H24.5183C25.3333 26 26 25.3558 26 24.5592V7.44083C26 6.645 25.3333 6 24.5183 6H24.5208Z" fill="white"/>
</svg>
