<svg width="32" height="32" viewBox="0 0 32 32" fill="none" xmlns="http://www.w3.org/2000/svg">
<rect x="0.5" y="0.5" width="31" height="31" rx="3.5" stroke="white" stroke-opacity="0.1"/>
<path d="M17.2834 16C17.2878 17.5014 16.6962 18.9433 15.6384 20.0089C14.5806 21.0745 13.1431 21.6767 11.6417 21.6833C10.1402 21.6767 8.70279 21.0745 7.64501 20.0089C6.58723 18.9433 5.99559 17.5014 6.00002 16C5.99559 14.4985 6.58723 13.0567 7.64501 11.9911C8.70279 10.9255 10.1402 10.3233 11.6417 10.3167C13.1431 10.3233 14.5806 10.9255 15.6384 11.9911C16.6962 13.0567 17.2878 14.4985 17.2834 16ZM23.4667 16C23.4667 18.95 22.2084 21.35 20.65 21.35C19.0917 21.35 17.825 18.95 17.825 16C17.825 13.05 19.0917 10.65 20.65 10.65C22.2084 10.65 23.4667 13.05 23.4667 16ZM26 16C26 18.6417 25.5584 20.7916 25.0084 20.7916C24.4584 20.7916 24.0167 18.6417 24.0167 16C24.0167 13.3583 24.4584 11.2083 25.0084 11.2083C25.5584 11.2083 26 13.3583 26 16Z" fill="white"/>
</svg>
