<svg width="20" height="12" viewBox="0 0 20 12" fill="none" xmlns="http://www.w3.org/2000/svg">
<path d="M11.2834 5.68333C11.2878 7.18479 10.6962 8.62663 9.63837 9.69222C8.58059 10.7578 7.14314 11.36 5.64169 11.3667C4.14024 11.36 2.70279 10.7578 1.64501 9.69222C0.587232 8.62663 -0.00440595 7.18479 2.47069e-05 5.68333C-0.00440595 4.18188 0.587232 2.74004 1.64501 1.67444C2.70279 0.608849 4.14024 0.00661757 5.64169 0C7.14314 0.00661757 8.58059 0.608849 9.63837 1.67444C10.6962 2.74004 11.2878 4.18188 11.2834 5.68333ZM17.4667 5.68333C17.4667 8.63333 16.2084 11.0333 14.65 11.0333C13.0917 11.0333 11.825 8.63333 11.825 5.68333C11.825 2.73333 13.0917 0.333333 14.65 0.333333C16.2084 0.333333 17.4667 2.73333 17.4667 5.68333ZM20 5.68333C20 8.325 19.5584 10.475 19.0084 10.475C18.4584 10.475 18.0167 8.325 18.0167 5.68333C18.0167 3.04167 18.4584 0.891667 19.0084 0.891667C19.5584 0.891667 20 3.04167 20 5.68333Z" fill="black"/>
</svg>
