<svg width="32" height="32" viewBox="0 0 32 32" fill="none" xmlns="http://www.w3.org/2000/svg">
<rect x="0.5" y="0.5" width="31" height="31" rx="3.5" stroke="white" stroke-opacity="0.1"/>
<path d="M21.82 18.8708V24.1328H9.42527V18.8708H7.55811V26H23.6836V18.8708H21.82Z" fill="white"/>
<path d="M11.1324 22.4354H20.1191V20.738H11.1324V22.4354ZM11.312 18.376L20.0415 20.2082L20.4009 18.4658L11.671 16.6336L11.312 18.376ZM12.4617 14.1908L20.5445 17.9628L21.299 16.3462L13.2157 12.5742L12.4614 14.1908H12.4617ZM14.7069 10.2212L21.5684 15.933L22.718 14.568L15.8384 8.8561L14.7069 10.2212ZM19.1256 6L17.6884 7.05971L23.0053 14.2268L24.4421 13.1669L19.1256 6Z" fill="white"/>
</svg>
