<svg width="32" height="32" viewBox="0 0 32 32" fill="none" xmlns="http://www.w3.org/2000/svg">
<rect x="0.5" y="0.5" width="31" height="31" rx="3.5" stroke="white" stroke-opacity="0.1"/>
<path d="M7.37477 14.8184C12.7445 12.4195 16.3242 10.8378 18.1141 10.0737C23.2306 7.89177 24.2924 7.51282 24.9859 7.50012C25.1385 7.49747 25.478 7.53613 25.6996 7.72C25.8838 7.87495 25.9356 8.0845 25.9615 8.23148C25.9845 8.37845 26.0162 8.71344 25.9903 8.97493C25.7141 11.9617 24.5141 19.2097 23.904 22.5551C23.6479 23.9707 23.1385 24.4452 22.6464 24.4916C21.5759 24.5925 20.7644 23.7667 19.7285 23.0704C18.1083 21.9805 17.1933 21.3023 15.6192 20.2389C13.8005 19.0099 14.9803 18.3343 16.0163 17.2305C16.2868 16.9416 21.0004 12.5455 21.0896 12.1468C21.1011 12.0969 21.1127 11.911 21.0033 11.813C20.8968 11.7147 20.7385 11.7483 20.6234 11.7749C20.4593 11.8127 17.8723 13.5682 12.8537 17.0411C12.1199 17.5587 11.4552 17.8111 10.8566 17.7978C10.2005 17.7833 8.93443 17.4165 7.99343 17.103C6.84237 16.7185 5.92435 16.5151 6.00493 15.862C6.04521 15.522 6.50284 15.174 7.37477 14.8184Z" fill="white"/>
</svg>
