<svg width="32" height="32" viewBox="0 0 32 32" fill="none" xmlns="http://www.w3.org/2000/svg">
<rect width="32" height="32" rx="4" fill="white"/>
<g clip-path="url(#clip0_68_40947)">
<path d="M16.0005 6.28485C21.3663 6.28485 25.7152 10.6344 25.7152 16C25.7152 21.3655 21.3654 25.7151 16.0005 25.7151" fill="white"/>
<path d="M16.0005 25.7151C10.6347 25.7151 6.28577 21.3655 6.28577 16C6.28577 10.6344 10.6347 6.28485 16.0005 6.28485" fill="#141314"/>
<path d="M16.0004 26C10.4865 26 6 21.5137 6 16C6 10.4863 10.4865 6 16.0004 6C21.5144 6 26 10.4863 26 16C26 21.5137 21.5144 26 16.0004 26ZM16.0004 6.57148C10.8005 6.57148 6.5715 10.8011 6.5715 16C6.5715 21.1989 10.8013 25.4285 16.0004 25.4285C21.1995 25.4285 25.4294 21.1989 25.4294 16C25.4294 10.8011 21.1995 6.57148 16.0004 6.57148Z" fill="#141314"/>
<path d="M16.0004 15.171C16.4581 15.171 16.8294 15.5423 16.8294 16C16.8294 16.4577 16.4581 16.829 16.0004 16.829" fill="#141314"/>
<path d="M16.0004 16.829C15.5427 16.829 15.1714 16.4577 15.1714 16C15.1714 15.5423 15.5427 15.171 16.0004 15.171" fill="white"/>
<path d="M20.8274 14.9338H17.984V17.0662H20.8274V14.9338Z" fill="#141314"/>
<path d="M14.016 14.9338H11.1726V17.0662H14.016V14.9338Z" fill="white"/>
</g>
<defs>
<clipPath id="clip0_68_40947">
<rect width="20" height="20" fill="white" transform="translate(6 6)"/>
</clipPath>
</defs>
</svg>
