<svg width="32" height="32" viewBox="0 0 32 32" fill="none" xmlns="http://www.w3.org/2000/svg">
<rect x="0.5" y="0.5" width="31" height="31" rx="3.5" stroke="white" stroke-opacity="0.1"/>
<g clip-path="url(#clip0_68_41089)">
<path d="M16.0005 6.30426C21.3548 6.30426 25.6958 10.645 25.6958 15.9991C25.6958 21.3532 21.3548 25.694 16.0005 25.694" fill="white"/>
<path d="M16.0005 25.6949C10.6461 25.6949 6.30518 21.3541 6.30518 16C6.30518 10.6459 10.6453 6.30426 16.0005 6.30426" fill="black"/>
<path d="M16.0005 15.1719C16.4573 15.1719 16.8278 15.5423 16.8278 15.9991C16.8278 16.4559 16.4573 16.8263 16.0005 16.8263" fill="black"/>
<path d="M16.0005 16.8274C15.5436 16.8274 15.1732 16.457 15.1732 16.0001C15.1732 15.5433 15.5436 15.1729 16.0005 15.1729" fill="white"/>
<path d="M20.8186 14.9355H17.9805V17.0636H20.8186V14.9355Z" fill="black"/>
<path d="M14.0205 14.9355H11.1824V17.0636H14.0205V14.9355Z" fill="white"/>
<path d="M16.0004 26C10.4865 26 6 21.5137 6 16C6 10.4863 10.4865 6 16.0004 6C21.5144 6 26 10.4863 26 16C26 21.5137 21.5144 26 16.0004 26ZM16.0004 6.57148C10.8005 6.57148 6.5715 10.8011 6.5715 16C6.5715 21.1989 10.8013 25.4285 16.0004 25.4285C21.1995 25.4285 25.4294 21.1989 25.4294 16C25.4294 10.8011 21.1995 6.57148 16.0004 6.57148Z" fill="white"/>
</g>
<defs>
<clipPath id="clip0_68_41089">
<rect width="20" height="20" fill="white" transform="translate(6 6)"/>
</clipPath>
</defs>
</svg>
