<svg width="61" height="28" viewBox="0 0 61 28" fill="none" xmlns="http://www.w3.org/2000/svg">
<path d="M0 8C0 3.58172 3.58172 0 8 0H53C57.4183 0 61 3.58172 61 8V20C61 24.4183 57.4183 28 53 28H8C3.58172 28 0 24.4183 0 20V8Z" fill="white"/>
<path d="M13.0588 18V10.272H16.6348C17.3948 10.272 17.9508 10.452 18.3028 10.812C18.6628 11.164 18.8428 11.664 18.8428 12.312C18.8428 12.736 18.7548 13.092 18.5788 13.38C18.4108 13.66 18.1748 13.872 17.8708 14.016C18.2628 14.112 18.5708 14.3 18.7948 14.58C19.0268 14.852 19.1428 15.256 19.1428 15.792C19.1428 16.544 18.9468 17.1 18.5547 17.46C18.1628 17.82 17.5868 18 16.8268 18H13.0588ZM14.0428 13.656H16.5748C17.0628 13.656 17.4068 13.54 17.6068 13.308C17.8148 13.068 17.9188 12.76 17.9188 12.384C17.9188 11.936 17.8148 11.6 17.6068 11.376C17.3988 11.144 16.9948 11.028 16.3948 11.028H14.0428V13.656ZM14.0428 17.256H16.6588C17.1788 17.256 17.5588 17.144 17.7988 16.92C18.0388 16.688 18.1588 16.3 18.1588 15.756C18.1588 15.308 18.0388 14.972 17.7988 14.748C17.5668 14.516 17.1348 14.4 16.5028 14.4H14.0428V17.256ZM22.5862 18.12C21.9062 18.12 21.3902 17.932 21.0382 17.556C20.6942 17.18 20.5222 16.632 20.5222 15.912V12.312H21.5062V15.948C21.5062 16.42 21.6222 16.768 21.8542 16.992C22.0942 17.216 22.4622 17.328 22.9582 17.328C23.3102 17.328 23.6422 17.264 23.9542 17.136C24.2662 17.008 24.5342 16.832 24.7582 16.608V12.312H25.7422V18H24.8542L24.7942 17.352C24.5222 17.576 24.1982 17.76 23.8222 17.904C23.4462 18.048 23.0342 18.12 22.5862 18.12ZM29.5019 18.12C28.9419 18.12 28.5179 17.972 28.2299 17.676C27.9499 17.372 27.8099 16.952 27.8099 16.416V13.092H26.9459V12.312H27.8099V10.908L28.7939 10.608V12.312H30.3659L30.3059 13.092H28.7939V16.368C28.7939 16.712 28.8699 16.96 29.0219 17.112C29.1819 17.256 29.4539 17.328 29.8379 17.328C30.0459 17.328 30.2739 17.288 30.5219 17.208V17.952C30.2259 18.064 29.8859 18.12 29.5019 18.12ZM33.7324 18.12C33.1724 18.12 32.7484 17.972 32.4604 17.676C32.1804 17.372 32.0404 16.952 32.0404 16.416V13.092H31.1764V12.312H32.0404V10.908L33.0244 10.608V12.312H34.5964L34.5364 13.092H33.0244V16.368C33.0244 16.712 33.1004 16.96 33.2524 17.112C33.4124 17.256 33.6844 17.328 34.0684 17.328C34.2764 17.328 34.5044 17.288 34.7524 17.208V17.952C34.4564 18.064 34.1164 18.12 33.7324 18.12ZM38.4909 18.12C37.4989 18.12 36.7749 17.868 36.3189 17.364C35.8709 16.852 35.6469 16.116 35.6469 15.156C35.6469 14.204 35.8749 13.472 36.3309 12.96C36.7869 12.448 37.5069 12.192 38.4909 12.192C39.4749 12.192 40.1949 12.448 40.6509 12.96C41.1069 13.472 41.3349 14.204 41.3349 15.156C41.3349 16.116 41.1109 16.852 40.6629 17.364C40.2149 17.868 39.4909 18.12 38.4909 18.12ZM38.4909 17.28C39.1709 17.28 39.6509 17.112 39.9309 16.776C40.2109 16.432 40.3509 15.892 40.3509 15.156C40.3509 14.42 40.2069 13.884 39.9189 13.548C39.6389 13.204 39.1629 13.032 38.4909 13.032C37.8189 13.032 37.3389 13.204 37.0509 13.548C36.7709 13.884 36.6309 14.42 36.6309 15.156C36.6309 15.892 36.7709 16.432 37.0509 16.776C37.3309 17.112 37.8109 17.28 38.4909 17.28ZM42.7775 18V12.312H43.6655L43.7255 12.96C43.9975 12.736 44.3135 12.552 44.6735 12.408C45.0415 12.264 45.4615 12.192 45.9335 12.192C46.6535 12.192 47.1775 12.36 47.5055 12.696C47.8335 13.032 47.9975 13.56 47.9975 14.28V18H47.0135V14.316C47.0135 13.82 46.9135 13.476 46.7135 13.284C46.5135 13.084 46.1295 12.984 45.5615 12.984C45.2095 12.984 44.8775 13.048 44.5655 13.176C44.2535 13.304 43.9855 13.48 43.7615 13.704V18H42.7775Z" fill="black"/>
</svg>
