<svg width="32" height="32" viewBox="0 0 32 32" fill="none" xmlns="http://www.w3.org/2000/svg">
<rect x="0.5" y="0.5" width="31" height="31" rx="3.5" stroke="white" stroke-opacity="0.1"/>
<path d="M25.5817 11.155C25.4687 10.7294 25.2459 10.3409 24.9355 10.0285C24.6252 9.71615 24.2382 9.49078 23.8133 9.375C22.2542 8.95416 16 8.95416 16 8.95416C16 8.95416 9.74583 8.95416 8.18583 9.375C7.76117 9.49098 7.37441 9.71644 7.06423 10.0288C6.75405 10.3412 6.53133 10.7295 6.41833 11.155C6 12.725 6 16 6 16C6 16 6 19.275 6.41833 20.845C6.53132 21.2706 6.75415 21.659 7.06449 21.9714C7.37484 22.2838 7.76181 22.5092 8.18667 22.625C9.74583 23.0458 16 23.0458 16 23.0458C16 23.0458 22.2542 23.0458 23.8142 22.625C24.2391 22.5093 24.6261 22.2839 24.9364 21.9715C25.2468 21.6591 25.4696 21.2706 25.5825 20.845C26 19.275 26 16 26 16C26 16 26 12.725 25.5817 11.155ZM13.9542 18.9733V13.0267L19.1817 16L13.9542 18.9733Z" fill="white"/>
</svg>
