<svg width="24" height="24" viewBox="0 0 24 24" fill="none" xmlns="http://www.w3.org/2000/svg">
<g clip-path="url(#clip0_131_1343)">
<path d="M19.2 0H4.8C2.14903 0 0 2.14903 0 4.8V19.2C0 21.851 2.14903 24 4.8 24H19.2C21.851 24 24 21.851 24 19.2V4.8C24 2.14903 21.851 0 19.2 0Z" fill="black"/>
<path d="M6.18652 3.7334H17.8132V20.2667H16.1065V12.6934H16.0898C15.9011 10.6003 14.142 8.96005 11.9999 8.96005C9.85766 8.96005 8.09856 10.6003 7.90992 12.6934H7.89319V20.2667H6.18652V3.7334Z" fill="white"/>
<path d="M3.09326 6.08008L3.7866 8.42675H4.37325V17.9201C4.0787 17.9201 3.83993 18.1589 3.83993 18.4534V19.0934H3.73327C3.43872 19.0934 3.19992 19.3322 3.19992 19.6268V20.2667H9.17325V19.6268C9.17325 19.3322 8.93448 19.0934 8.63993 19.0934H8.53327V18.4534C8.53327 18.1589 8.29447 17.9201 7.99992 17.9201H7.35993V6.08008H3.09326Z" fill="white"/>
<path d="M16.2134 17.9201C15.9188 17.9201 15.68 18.1589 15.68 18.4534V19.0934H15.5734C15.2788 19.0934 15.04 19.3322 15.04 19.6268V20.2667H21.0134V19.6268C21.0134 19.3322 20.7746 19.0934 20.48 19.0934H20.3734V18.4534C20.3734 18.1589 20.1346 17.9201 19.84 17.9201V8.42675H20.4267L21.12 6.08008H16.8534V17.9201H16.2134Z" fill="white"/>
</g>
<defs>
<clipPath id="clip0_131_1343">
<rect width="24" height="24" fill="white"/>
</clipPath>
</defs>
</svg>
