<svg width="20" height="20" viewBox="0 0 20 20" fill="none" xmlns="http://www.w3.org/2000/svg">
<g clip-path="url(#clip0_95_2915)">
<mask id="mask0_95_2915" style="mask-type:luminance" maskUnits="userSpaceOnUse" x="0" y="0" width="20" height="20">
<path d="M19.6031 0H0V20H19.6031V0Z" fill="white"/>
</mask>
<g mask="url(#mask0_95_2915)">
<path d="M19.603 10.2296C19.603 9.54983 19.5479 8.86638 19.4303 8.19763H9.99805V12.0484H15.3995C15.1753 13.2904 14.4551 14.389 13.4006 15.0872V17.5858H16.623C18.5154 15.8441 19.603 13.272 19.603 10.2296Z" fill="white"/>
<path d="M9.99875 20.0001C12.6958 20.0001 14.9703 19.1145 16.6274 17.586L13.4049 15.0873C12.5084 15.6973 11.3509 16.0427 10.0024 16.0427C7.39355 16.0427 5.18155 14.2826 4.38787 11.9163H1.0625V14.4921C2.76009 17.8689 6.21775 20.0001 9.99875 20.0001Z" fill="white"/>
<path d="M4.3835 11.9163C3.96461 10.6743 3.96461 9.32947 4.3835 8.08752V5.51172H1.0618C-0.356537 8.33737 -0.356537 11.6664 1.0618 14.4921L4.3835 11.9163Z" fill="white"/>
<path d="M9.99875 3.95732C11.4245 3.93527 12.8024 4.47174 13.8349 5.4565L16.6899 2.60145C14.8821 0.903855 12.4827 -0.0294541 9.99875 -5.8533e-05C6.21775 -5.8533e-05 2.7601 2.13112 1.0625 5.5116L4.3842 8.0874C5.1742 5.7174 7.3899 3.95732 9.99875 3.95732Z" fill="white"/>
</g>
</g>
<defs>
<clipPath id="clip0_95_2915">
<rect width="20" height="20" fill="white"/>
</clipPath>
</defs>
</svg>
