<svg width="16" height="16" viewBox="0 0 16 16" fill="none" xmlns="http://www.w3.org/2000/svg">
<mask id="mask0_138_925" style="mask-type:alpha" maskUnits="userSpaceOnUse" x="0" y="0" width="16" height="16">
<rect width="16" height="16" fill="#D9D9D9"/>
</mask>
<g mask="url(#mask0_138_925)">
<path d="M12.6666 10C12.8 9.86667 12.9583 9.8 13.1416 9.8C13.325 9.8 13.4833 9.86667 13.6166 10L14.6666 11.0667C14.8 11.2 14.8666 11.3556 14.8666 11.5333C14.8666 11.7111 14.8 11.8667 14.6666 12C14.5333 12.1333 14.3777 12.2 14.2 12.2C14.0222 12.2 13.8666 12.1333 13.7333 12L12.6666 10.95C12.5333 10.8167 12.4666 10.6583 12.4666 10.475C12.4666 10.2917 12.5333 10.1333 12.6666 10ZM13.3333 2C13.4666 2.13333 13.5333 2.29167 13.5333 2.475C13.5333 2.65833 13.4666 2.81667 13.3333 2.95L12.2833 4C12.15 4.13333 11.9916 4.2 11.8083 4.2C11.625 4.2 11.4666 4.13333 11.3333 4C11.2 3.86667 11.1333 3.70833 11.1333 3.525C11.1333 3.34167 11.2 3.18333 11.3333 3.05L12.4 2C12.5333 1.86667 12.6889 1.8 12.8666 1.8C13.0444 1.8 13.2 1.86667 13.3333 2ZM2.66663 2C2.79997 1.86667 2.9583 1.8 3.14163 1.8C3.32497 1.8 3.4833 1.86667 3.61663 2L4.66663 3.06667C4.79997 3.2 4.86663 3.35555 4.86663 3.53333C4.86663 3.71111 4.79997 3.86667 4.66663 4C4.5333 4.13333 4.37497 4.2 4.19163 4.2C4.0083 4.2 3.84997 4.13333 3.71663 4L2.66663 2.95C2.5333 2.81667 2.46663 2.65833 2.46663 2.475C2.46663 2.29167 2.5333 2.13333 2.66663 2ZM3.3333 10C3.46663 10.1333 3.5333 10.2917 3.5333 10.475C3.5333 10.6583 3.46663 10.8167 3.3333 10.95L2.2833 12C2.14997 12.1333 1.99163 12.2 1.8083 12.2C1.62497 12.2 1.46663 12.1333 1.3333 12C1.19997 11.8667 1.1333 11.7083 1.1333 11.525C1.1333 11.3417 1.19997 11.1833 1.3333 11.05L2.39997 10C2.5333 9.86667 2.68886 9.8 2.86663 9.8C3.04441 9.8 3.19997 9.86667 3.3333 10ZM7.99997 11.5167L5.2333 13.1833C5.11108 13.2611 4.9833 13.2944 4.84997 13.2833C4.71663 13.2722 4.59997 13.2278 4.49997 13.15C4.39997 13.0722 4.32219 12.975 4.26663 12.8583C4.21108 12.7417 4.19997 12.6111 4.2333 12.4667L4.96663 9.31667L2.51663 7.2C2.40552 7.1 2.33608 6.98611 2.3083 6.85833C2.28052 6.73056 2.28886 6.60556 2.3333 6.48333C2.37775 6.36111 2.44441 6.26111 2.5333 6.18333C2.62219 6.10556 2.74441 6.05555 2.89997 6.03333L6.1333 5.75L7.3833 2.78333C7.43886 2.65 7.52497 2.55 7.64163 2.48333C7.7583 2.41667 7.87775 2.38333 7.99997 2.38333C8.12219 2.38333 8.24163 2.41667 8.3583 2.48333C8.47497 2.55 8.56108 2.65 8.61663 2.78333L9.86663 5.75L13.1 6.03333C13.2555 6.05555 13.3777 6.10556 13.4666 6.18333C13.5555 6.26111 13.6222 6.36111 13.6666 6.48333C13.7111 6.60556 13.7194 6.73056 13.6916 6.85833C13.6639 6.98611 13.5944 7.1 13.4833 7.2L11.0333 9.31667L11.7666 12.4667C11.8 12.6111 11.7889 12.7417 11.7333 12.8583C11.6777 12.975 11.6 13.0722 11.5 13.15C11.4 13.2278 11.2833 13.2722 11.15 13.2833C11.0166 13.2944 10.8889 13.2611 10.7666 13.1833L7.99997 11.5167Z" fill="black"/>
</g>
</svg>
