<svg width="16" height="16" viewBox="0 0 16 16" fill="none" xmlns="http://www.w3.org/2000/svg">
<mask id="mask0_138_911" style="mask-type:alpha" maskUnits="userSpaceOnUse" x="0" y="0" width="16" height="16">
<rect width="16" height="16" fill="#D9D9D9"/>
</mask>
<g mask="url(#mask0_138_911)">
<path d="M2.11663 2.78333C2.24996 2.65 2.40551 2.58333 2.58329 2.58333C2.76107 2.58333 2.91663 2.65 3.04996 2.78333L3.53329 3.25C3.66663 3.38333 3.73329 3.54167 3.73329 3.725C3.73329 3.90833 3.66663 4.06667 3.53329 4.2C3.39996 4.33333 3.24163 4.4 3.05829 4.4C2.87496 4.4 2.71663 4.33333 2.58329 4.2L2.11663 3.71667C1.98329 3.58333 1.91663 3.42778 1.91663 3.25C1.91663 3.07222 1.98329 2.91667 2.11663 2.78333ZM7.99996 1.33333C8.18885 1.33333 8.34718 1.39722 8.47496 1.525C8.60274 1.65278 8.66663 1.81111 8.66663 2V2.66667C8.66663 2.85555 8.60274 3.01389 8.47496 3.14167C8.34718 3.26944 8.18885 3.33333 7.99996 3.33333C7.81107 3.33333 7.65274 3.26944 7.52496 3.14167C7.39718 3.01389 7.33329 2.85555 7.33329 2.66667V2C7.33329 1.81111 7.39718 1.65278 7.52496 1.525C7.65274 1.39722 7.81107 1.33333 7.99996 1.33333ZM13.8666 2.78333C14 2.91667 14.0638 3.07222 14.0583 3.25C14.0527 3.42778 13.9833 3.58333 13.85 3.71667L13.3833 4.2C13.25 4.33333 13.0944 4.4 12.9166 4.4C12.7388 4.4 12.5833 4.33333 12.45 4.2C12.3166 4.06667 12.25 3.90833 12.25 3.725C12.25 3.54167 12.3166 3.38333 12.45 3.25L12.9166 2.78333C13.05 2.65 13.2083 2.58333 13.3916 2.58333C13.575 2.58333 13.7333 2.65 13.8666 2.78333ZM3.41663 9.33333H12.5833C12.7388 9.33333 12.8444 9.4 12.9 9.53333C12.9555 9.66667 12.9277 9.78889 12.8166 9.9L8.93329 13.7333C8.67774 13.9889 8.36663 14.1167 7.99996 14.1167C7.63329 14.1167 7.32218 13.9889 7.06663 13.7333L3.18329 9.9C3.07218 9.78889 3.0444 9.66667 3.09996 9.53333C3.15551 9.4 3.26107 9.33333 3.41663 9.33333ZM3.04996 7.45L4.93329 5.15C5.05552 4.99444 5.20829 4.875 5.39163 4.79167C5.57496 4.70833 5.76663 4.66667 5.96663 4.66667H10.0333C10.2333 4.66667 10.425 4.70833 10.6083 4.79167C10.7916 4.875 10.9444 4.99444 11.0666 5.15L12.95 7.45C13.0388 7.56111 13.0555 7.68055 13 7.80833C12.9444 7.93611 12.8444 8 12.7 8H3.29996C3.15551 8 3.05551 7.93611 2.99996 7.80833C2.9444 7.68055 2.96107 7.56111 3.04996 7.45Z" fill="black"/>
</g>
</svg>
