<svg width="16" height="16" viewBox="0 0 16 16" fill="none" xmlns="http://www.w3.org/2000/svg">
<mask id="mask0_138_959" style="mask-type:alpha" maskUnits="userSpaceOnUse" x="0" y="0" width="16" height="16">
<rect width="16" height="16" fill="#D9D9D9"/>
</mask>
<g mask="url(#mask0_138_959)">
<path d="M8 10.8667L5.53333 12.75C5.41111 12.85 5.27778 12.8972 5.13333 12.8917C4.98889 12.8861 4.86111 12.8444 4.75 12.7667C4.63889 12.6889 4.55278 12.5833 4.49167 12.45C4.43056 12.3167 4.42778 12.1722 4.48333 12.0167L5.43333 8.93333L3.01667 7.21667C2.88333 7.12778 2.8 7.01111 2.76667 6.86667C2.73333 6.72222 2.73889 6.58889 2.78333 6.46667C2.82778 6.34444 2.90556 6.23611 3.01667 6.14167C3.12778 6.04722 3.26111 6 3.41667 6H6.4L7.36667 2.8C7.42222 2.64444 7.50833 2.525 7.625 2.44167C7.74167 2.35833 7.86667 2.31667 8 2.31667C8.13333 2.31667 8.25833 2.35833 8.375 2.44167C8.49167 2.525 8.57778 2.64444 8.63333 2.8L9.6 6H12.5833C12.7389 6 12.8722 6.04722 12.9833 6.14167C13.0944 6.23611 13.1722 6.34444 13.2167 6.46667C13.2611 6.58889 13.2667 6.72222 13.2333 6.86667C13.2 7.01111 13.1167 7.12778 12.9833 7.21667L10.5667 8.93333L11.5167 12.0167C11.5722 12.1722 11.5694 12.3167 11.5083 12.45C11.4472 12.5833 11.3611 12.6889 11.25 12.7667C11.1389 12.8444 11.0111 12.8861 10.8667 12.8917C10.7222 12.8972 10.5889 12.85 10.4667 12.75L8 10.8667Z" fill="black"/>
</g>
</svg>
