<svg width="40" height="40" viewBox="0 0 40 40" fill="none" xmlns="http://www.w3.org/2000/svg">
<g clip-path="url(#clip0_60_595)">
<path d="M20.001 0.608521C30.7092 0.608521 39.3907 9.29006 39.3907 19.9982C39.3907 30.7064 30.7092 39.388 20.001 39.388" fill="white"/>
<path d="M20.001 39.3897C9.29287 39.3897 0.611328 30.7082 0.611328 20C0.611328 9.29183 9.29111 0.608521 20.001 0.608521" fill="#141314"/>
<path d="M20.001 18.3438C20.9146 18.3438 21.6554 19.0846 21.6554 19.9982C21.6554 20.9119 20.9146 21.6527 20.001 21.6527" fill="#141314"/>
<path d="M20.0011 21.6545C19.0875 21.6545 18.3467 20.9137 18.3467 20C18.3467 19.0863 19.0875 18.3455 20.0011 18.3455" fill="white"/>
<path d="M29.6369 17.8711H23.9609V22.1272H29.6369V17.8711Z" fill="#141314"/>
<path d="M16.0412 17.8711H10.3652V22.1272H16.0412V17.8711Z" fill="white"/>
<path d="M20.001 40C8.97355 40 0.000976562 31.0274 0.000976562 20C0.000976562 8.97257 8.97355 0 20.001 0C31.0284 0 39.9992 8.97257 39.9992 20C39.9992 31.0274 31.0284 40 20.001 40ZM20.001 1.14296C9.60147 1.14296 1.14393 9.60226 1.14393 20C1.14393 30.3977 9.60323 38.857 20.001 38.857C30.3987 38.857 38.858 30.3977 38.858 20C38.858 9.60226 30.3987 1.14296 20.001 1.14296Z" fill="white"/>
</g>
<defs>
<clipPath id="clip0_60_595">
<rect width="39.9982" height="40" fill="white" transform="translate(0.000976562)"/>
</clipPath>
</defs>
</svg>
