<svg width="24" height="24" viewBox="0 0 24 24" fill="none" xmlns="http://www.w3.org/2000/svg">
<g clip-path="url(#clip0_131_1329)">
<mask id="mask0_131_1329" style="mask-type:luminance" maskUnits="userSpaceOnUse" x="0" y="0" width="24" height="24">
<path d="M24 0H0V24H24V0Z" fill="white"/>
</mask>
<g mask="url(#mask0_131_1329)">
<mask id="mask1_131_1329" style="mask-type:luminance" maskUnits="userSpaceOnUse" x="0" y="0" width="24" height="24">
<path d="M24 0H0V24H24V0Z" fill="white"/>
</mask>
<g mask="url(#mask1_131_1329)">
<path d="M12.1043 -7.25714e-05C5.39393 -0.0552726 -0.0552726 5.39393 -7.25714e-05 12.1043C0.0563274 18.6203 5.37953 23.9447 11.8943 23.9987C18.6047 24.0563 24.0563 18.6047 23.9987 11.8943C23.9447 5.38073 18.6203 0.0563274 12.1043 -7.25714e-05ZM8.51633 5.97233C9.28433 6.94793 9.74393 8.18273 9.74393 9.52193C9.74393 10.6823 9.39953 11.7623 8.80793 12.6635H4.64753L8.51513 5.97113L8.51633 5.97233ZM21.2003 13.2827V14.1467C21.2003 14.2031 21.1703 14.2511 21.1187 14.2727C20.8367 14.3927 19.9067 14.8247 19.5191 15.3623C18.5207 16.7519 17.7587 18.9359 16.0547 18.9359H8.94473C6.42713 18.9359 4.32113 16.9379 4.32233 14.2763C4.32233 14.2103 4.37873 14.1563 4.44473 14.1563H7.81433C7.93073 14.1563 8.02193 14.2499 8.02193 14.3639V15.0143C8.02193 15.3599 8.30153 15.6407 8.64833 15.6407H11.2043V14.1527H9.45833C10.4627 12.8807 11.0603 11.2751 11.0603 9.52673C11.0603 7.57673 10.3127 5.79833 9.08873 4.46873C9.82913 4.55513 10.5371 4.70273 11.2043 4.89833V4.48433C11.2043 4.05473 11.5523 3.70673 11.9819 3.70673C12.4115 3.70673 12.7595 4.05473 12.7595 4.48433V5.48273C15.1451 6.59633 16.7075 8.44433 16.7075 10.5347C16.7075 11.7611 16.1711 12.9023 15.2459 13.8623C15.0683 14.0459 14.8223 14.1503 14.5643 14.1503H12.7607V15.6359H15.0251C15.5135 15.6359 16.3895 14.7095 16.8047 14.1515C16.8047 14.1515 16.8227 14.1239 16.8707 14.1095C16.9187 14.0951 21.0287 13.1519 21.0287 13.1519C21.1151 13.1279 21.2003 13.1939 21.2003 13.2815V13.2827Z" fill="white"/>
</g>
</g>
</g>
<defs>
<clipPath id="clip0_131_1329">
<rect width="24" height="24" fill="white"/>
</clipPath>
</defs>
</svg>
