<svg width="20" height="20" viewBox="0 0 20 20" fill="none" xmlns="http://www.w3.org/2000/svg">
<path d="M11.2834 9.99998C11.2878 11.5014 10.6962 12.9433 9.63837 14.0089C8.58059 15.0745 7.14314 15.6767 5.64169 15.6833C4.14024 15.6767 2.70279 15.0745 1.64501 14.0089C0.587232 12.9433 -0.00440595 11.5014 2.47069e-05 9.99998C-0.00440595 8.49853 0.587232 7.05669 1.64501 5.99109C2.70279 4.9255 4.14024 4.32327 5.64169 4.31665C7.14314 4.32327 8.58059 4.9255 9.63837 5.99109C10.6962 7.05669 11.2878 8.49853 11.2834 9.99998ZM17.4667 9.99998C17.4667 12.95 16.2084 15.35 14.65 15.35C13.0917 15.35 11.825 12.95 11.825 9.99998C11.825 7.04998 13.0917 4.64998 14.65 4.64998C16.2084 4.64998 17.4667 7.04998 17.4667 9.99998ZM20 9.99998C20 12.6417 19.5584 14.7916 19.0084 14.7916C18.4584 14.7916 18.0167 12.6417 18.0167 9.99998C18.0167 7.35832 18.4584 5.20832 19.0084 5.20832C19.5584 5.20832 20 7.35832 20 9.99998Z" fill="white"/>
</svg>
