<svg width="64" height="64" viewBox="0 0 64 64" fill="none" xmlns="http://www.w3.org/2000/svg">
<g clip-path="url(#clip0_54_131)">
<path d="M32.0013 0.973633C49.1352 0.973633 63.0263 14.8641 63.0263 31.9972C63.0263 49.1303 49.1352 63.0207 32.0013 63.0207" fill="white"/>
<path d="M32.0014 63.0236C14.8675 63.0236 0.97644 49.1331 0.97644 32C0.97644 14.8669 14.8647 0.973633 32.0014 0.973633" fill="#141314"/>
<path d="M32.0013 29.35C33.4633 29.35 34.6486 30.5353 34.6486 31.9971C34.6486 33.459 33.4633 34.6443 32.0013 34.6443" fill="#141314"/>
<path d="M32.0014 34.6471C30.5395 34.6471 29.3541 33.4618 29.3541 31.9999C29.3541 30.5381 30.5395 29.3528 32.0014 29.3528" fill="white"/>
<path d="M47.4193 28.5938H38.3373V35.4035H47.4193V28.5938Z" fill="#141314"/>
<path d="M25.6655 28.5938H16.5835V35.4035H25.6655V28.5938Z" fill="white"/>
<path d="M32.0014 64C14.3567 64 0 49.6439 0 32C0 14.3561 14.3567 0 32.0014 0C49.6461 0 64 14.3561 64 32C64 49.6439 49.6461 64 32.0014 64ZM32.0014 1.82873C15.3615 1.82873 1.82881 15.3636 1.82881 32C1.82881 48.6364 15.3643 62.1713 32.0014 62.1713C48.6385 62.1713 62.174 48.6364 62.174 32C62.174 15.3636 48.6385 1.82873 32.0014 1.82873Z" fill="white"/>
</g>
<defs>
<clipPath id="clip0_54_131">
<rect width="64" height="64" fill="white"/>
</clipPath>
</defs>
</svg>
