<svg width="24" height="24" viewBox="0 0 24 24" fill="none" xmlns="http://www.w3.org/2000/svg">
<mask id="mask0_68_40783" style="mask-type:alpha" maskUnits="userSpaceOnUse" x="0" y="0" width="24" height="24">
<rect width="24" height="24" fill="#D9D9D9"/>
</mask>
<g mask="url(#mask0_68_40783)">
<path d="M9.25411 5.47043C9.55357 4.84319 10.4464 4.84319 10.7459 5.47043L12.8121 9.79816C12.8936 9.96886 13.0311 10.1064 13.2018 10.1879L17.5296 12.2541C18.1568 12.5536 18.1568 13.4464 17.5296 13.7459L13.2018 15.8121C13.0311 15.8936 12.8936 16.0311 12.8121 16.2018L10.7459 20.5296C10.4464 21.1568 9.55357 21.1568 9.25411 20.5296L7.18794 16.2018C7.10644 16.0311 6.96886 15.8936 6.79816 15.8121L2.47043 13.7459C1.84319 13.4464 1.84319 12.5536 2.47043 12.2541L6.79816 10.1879C6.96886 10.1064 7.10644 9.96886 7.18794 9.79816L9.25411 5.47043Z" fill="white"/>
<path d="M17.6271 2.23521C17.7768 1.9216 18.2232 1.9216 18.3729 2.23521L19.406 4.39908C19.4468 4.48443 19.5156 4.55322 19.6009 4.59397L21.7648 5.62706C22.0784 5.77679 22.0784 6.22321 21.7648 6.37294L19.6009 7.40603C19.5156 7.44678 19.4468 7.51557 19.406 7.60092L18.3729 9.76479C18.2232 10.0784 17.7768 10.0784 17.6271 9.76479L16.594 7.60092C16.5532 7.51557 16.4844 7.44678 16.3991 7.40603L14.2352 6.37294C13.9216 6.22321 13.9216 5.77679 14.2352 5.62706L16.3991 4.59397C16.4844 4.55322 16.5532 4.48443 16.594 4.39908L17.6271 2.23521Z" fill="white"/>
<path d="M21 19C21 20.1046 20.1046 21 19 21C17.8954 21 17 20.1046 17 19C17 17.8954 17.8954 17 19 17C20.1046 17 21 17.8954 21 19Z" fill="white"/>
</g>
</svg>
