<svg width="20" height="10" viewBox="0 0 20 10" fill="none" xmlns="http://www.w3.org/2000/svg">
<path d="M16.3174 6.83209L18.0693 0.093811H20L17.7207 8.67389C16.9386 10.4958 15.5376 10.1332 14.9102 8.67389L12.627 0.093811H14.5566L16.3174 6.83209ZM11.5801 1.84283H8.42285V4.1192H10.3535V5.87115H8.42285V8.14752H11.5811V9.89948H7.89648C7.23524 9.91664 6.68554 9.39373 6.66895 8.73248V1.3194C6.65307 0.658835 7.17633 0.1104 7.83691 0.093811H11.5811L11.5801 1.84283ZM2.80762 0.0918579C4.9073 0.0919971 5.61367 1.77854 5.61426 2.89362V7.09576C5.61426 8.21029 4.92653 9.89912 2.74902 9.89557H0V0.0918579H2.80762ZM1.87207 8.11627H2.90527C3.13514 8.11627 3.36584 8.03024 3.5957 7.85846C3.82556 7.68666 3.94039 7.42918 3.94043 7.08502V2.95807C3.93984 2.61441 3.82501 2.35549 3.5957 2.18365C3.36586 2.01188 3.13511 1.92686 2.90527 1.92682H1.87207V8.11627Z" fill="black"/>
</svg>
