<svg width="20" height="18" viewBox="0 0 20 18" fill="none" xmlns="http://www.w3.org/2000/svg">
<path d="M1.37477 7.81837C6.74447 5.41949 10.3242 3.83784 12.1141 3.07373C17.2306 0.891772 18.2924 0.512816 18.9859 0.500125C19.1385 0.497469 19.478 0.536131 19.6996 0.720002C19.8838 0.87495 19.9356 1.0845 19.9615 1.23148C19.9845 1.37845 20.0162 1.71344 19.9903 1.97493C19.7141 4.96173 18.5141 12.2097 17.904 15.5551C17.6479 16.9707 17.1385 17.4452 16.6464 17.4916C15.5759 17.5925 14.7644 16.7667 13.7285 16.0704C12.1083 14.9805 11.1933 14.3023 9.61922 13.2389C7.80054 12.0099 8.98035 11.3343 10.0163 10.2305C10.2868 9.94159 15.0004 5.54551 15.0896 5.14678C15.1011 5.0969 15.1127 4.91096 15.0033 4.81298C14.8968 4.7147 14.7385 4.74834 14.6234 4.7749C14.4593 4.81268 11.8723 6.56816 6.85369 10.0411C6.11989 10.5587 5.45517 10.8111 4.85662 10.7978C4.20051 10.7833 2.93443 10.4165 1.99343 10.103C0.842371 9.71847 -0.0756469 9.51512 0.00492751 8.86198C0.0452147 8.52198 0.502835 8.17401 1.37477 7.81837Z" fill="white"/>
</svg>
