<svg width="20" height="20" viewBox="0 0 20 20" fill="none" xmlns="http://www.w3.org/2000/svg">
<path d="M10.0005 0.284851C15.3663 0.284851 19.7152 4.63444 19.7152 9.99999C19.7152 15.3655 15.3654 19.7151 10.0005 19.7151" fill="white"/>
<path d="M10.0005 19.7151C4.63467 19.7151 0.285767 15.3655 0.285767 9.99999C0.285767 4.63444 4.63467 0.284851 10.0005 0.284851" fill="#141314"/>
<path d="M10.0004 20C4.48648 20 0 15.5137 0 10C0 4.48629 4.48648 0 10.0004 0C15.5144 0 20 4.48629 20 10C20 15.5137 15.5144 20 10.0004 20ZM10.0004 0.571479C4.80046 0.571479 0.571504 4.80113 0.571504 10C0.571504 15.1989 4.80134 19.4285 10.0004 19.4285C15.1995 19.4285 19.4294 15.1989 19.4294 10C19.4294 4.80113 15.1995 0.571479 10.0004 0.571479Z" fill="#141314"/>
<path d="M10.0004 9.17102C10.4581 9.17102 10.8294 9.54231 10.8294 10C10.8294 10.4577 10.4581 10.829 10.0004 10.829" fill="#141314"/>
<path d="M10.0004 10.829C9.54269 10.829 9.17139 10.4577 9.17139 10C9.17139 9.54231 9.54269 9.17102 10.0004 9.17102" fill="white"/>
<path d="M14.8274 8.93378H11.984V11.0662H14.8274V8.93378Z" fill="#141314"/>
<path d="M8.01602 8.93378H5.17261V11.0662H8.01602V8.93378Z" fill="white"/>
</svg>
