<svg width="24" height="24" viewBox="0 0 24 24" fill="none" xmlns="http://www.w3.org/2000/svg">
<path d="M12.0006 0.365112C18.4258 0.365112 23.635 5.57404 23.635 11.9989C23.635 18.4238 18.4258 23.6328 12.0006 23.6328" fill="white"/>
<path d="M12.0006 23.6338C5.57537 23.6338 0.366211 18.4249 0.366211 12C0.366211 5.5751 5.57431 0.365112 12.0006 0.365112" fill="#141314"/>
<path d="M12.0005 11.0063C12.5487 11.0063 12.9932 11.4507 12.9932 11.9989C12.9932 12.5471 12.5487 12.9916 12.0005 12.9916" fill="#141314"/>
<path d="M12.0005 12.9927C11.4523 12.9927 11.0078 12.5482 11.0078 12C11.0078 11.4518 11.4523 11.0073 12.0005 11.0073" fill="white"/>
<path d="M17.7823 10.7226H14.3766V13.2763H17.7823V10.7226Z" fill="#141314"/>
<path d="M9.62461 10.7226H6.21887V13.2763H9.62461V10.7226Z" fill="white"/>
<path d="M12.0005 24C5.38378 24 0 18.6165 0 12C0 5.38354 5.38378 0 12.0005 0C18.6173 0 24 5.38354 24 12C24 18.6165 18.6173 24 12.0005 24ZM12.0005 0.685775C5.76055 0.685775 0.685805 5.76135 0.685805 12C0.685805 18.2386 5.76161 23.3142 12.0005 23.3142C18.2395 23.3142 23.3153 18.2386 23.3153 12C23.3153 5.76135 18.2395 0.685775 12.0005 0.685775Z" fill="white"/>
</svg>
