<svg width="24" height="24" viewBox="0 0 24 24" fill="none" xmlns="http://www.w3.org/2000/svg">
<path d="M12.0005 0.341827C18.4394 0.341827 23.6581 5.56134 23.6581 12C23.6581 18.4387 18.4384 23.6582 12.0005 23.6582" fill="white"/>
<path d="M12.0005 23.6582C5.56157 23.6582 0.342896 18.4387 0.342896 12C0.342896 5.56134 5.56157 0.341827 12.0005 0.341827" fill="#141314"/>
<path d="M12.0005 24C5.38378 24 0 18.6165 0 12C0 5.38354 5.38378 0 12.0005 0C18.6173 0 24 5.38354 24 12C24 18.6165 18.6173 24 12.0005 24ZM12.0005 0.685775C5.76055 0.685775 0.685805 5.76135 0.685805 12C0.685805 18.2386 5.76161 23.3142 12.0005 23.3142C18.2395 23.3142 23.3153 18.2386 23.3153 12C23.3153 5.76135 18.2395 0.685775 12.0005 0.685775Z" fill="#141314"/>
<path d="M12.0006 11.0052C12.5499 11.0052 12.9955 11.4507 12.9955 12C12.9955 12.5493 12.5499 12.9948 12.0006 12.9948" fill="#141314"/>
<path d="M12.0006 12.9948C11.4513 12.9948 11.0057 12.5493 11.0057 12C11.0057 11.4507 11.4513 11.0052 12.0006 11.0052" fill="white"/>
<path d="M17.7928 10.7205H14.3807V13.2795H17.7928V10.7205Z" fill="#141314"/>
<path d="M9.61924 10.7205H6.20715V13.2795H9.61924V10.7205Z" fill="white"/>
</svg>
