<svg width="20" height="20" viewBox="0 0 20 20" fill="none" xmlns="http://www.w3.org/2000/svg">
<path d="M10.0005 0.30426C15.3548 0.30426 19.6958 4.64503 19.6958 9.99912C19.6958 15.3532 15.3548 19.694 10.0005 19.694" fill="white"/>
<path d="M10.0005 19.6949C4.64614 19.6949 0.305176 15.3541 0.305176 10C0.305176 4.64591 4.64526 0.30426 10.0005 0.30426" fill="black"/>
<path d="M10.0005 9.17188C10.4573 9.17188 10.8278 9.54228 10.8278 9.99911C10.8278 10.4559 10.4573 10.8263 10.0005 10.8263" fill="black"/>
<path d="M10.0005 10.8274C9.54364 10.8274 9.17322 10.457 9.17322 10.0001C9.17322 9.54332 9.54364 9.17291 10.0005 9.17291" fill="white"/>
<path d="M14.8186 8.93555H11.9805V11.0636H14.8186V8.93555Z" fill="black"/>
<path d="M8.02049 8.93555H5.18237V11.0636H8.02049V8.93555Z" fill="white"/>
<path d="M10.0004 20C4.48648 20 0 15.5137 0 10C0 4.48629 4.48648 0 10.0004 0C15.5144 0 20 4.48629 20 10C20 15.5137 15.5144 20 10.0004 20ZM10.0004 0.571479C4.80046 0.571479 0.571504 4.80113 0.571504 10C0.571504 15.1989 4.80134 19.4285 10.0004 19.4285C15.1995 19.4285 19.4294 15.1989 19.4294 10C19.4294 4.80113 15.1995 0.571479 10.0004 0.571479Z" fill="white"/>
</svg>
