<?xml version="1.0" encoding="UTF-8"?>
<svg id="_圖層_2" data-name="圖層 2" xmlns="http://www.w3.org/2000/svg" viewBox="0 0 226.77 226.78">
  <defs>
    <style>
      .cls-1 {
        fill: #141314;
      }

      .cls-2 {
        fill: #fff;
      }
    </style>
  </defs>
  <g id="_圖層_1-2" data-name="圖層 1">
    <g>
      <g>
        <g>
          <path class="cls-2" d="M113.39,3.45c60.71,0,109.93,49.22,109.93,109.93s-49.22,109.93-109.93,109.93"/>
          <path class="cls-1" d="M113.39,223.32c-60.71,0-109.93-49.22-109.93-109.93S52.67,3.45,113.39,3.45"/>
        </g>
        <g>
          <path class="cls-1" d="M113.39,104c5.18,0,9.38,4.2,9.38,9.38s-4.2,9.38-9.38,9.38"/>
          <path class="cls-2" d="M113.39,122.77c-5.18,0-9.38-4.2-9.38-9.38s4.2-9.38,9.38-9.38"/>
        </g>
        <rect class="cls-1" x="135.84" y="101.32" width="32.18" height="24.13"/>
        <rect class="cls-2" x="58.76" y="101.32" width="32.18" height="24.13"/>
      </g>
      <path class="cls-2" d="M113.39,226.78C50.87,226.78,0,175.91,0,113.39S50.87,0,113.39,0s113.38,50.87,113.38,113.39-50.86,113.39-113.38,113.39ZM113.39,6.48C54.43,6.48,6.48,54.44,6.48,113.39s47.96,106.91,106.91,106.91,106.91-47.96,106.91-106.91S172.34,6.48,113.39,6.48Z"/>
    </g>
  </g>
</svg>